<svg width="50" height="50" viewBox="0 0 50 50" fill="none" xmlns="http://www.w3.org/2000/svg">
<rect width="50" height="50" rx="25" fill="#9E501F"/>
<mask id="mask0_1795_3376" style="mask-type:alpha" maskUnits="userSpaceOnUse" x="9" y="9" width="32" height="32">
<rect x="9" y="9" width="32" height="32" fill="#D9D9D9"/>
</mask>
<g mask="url(#mask0_1795_3376)">
<path d="M35.2553 36.4223L26.6963 27.8633C26.0319 28.4381 25.2607 28.8832 24.3827 29.1987C23.5048 29.5141 22.5962 29.6719 21.657 29.6719C19.3881 29.6719 17.4679 28.8865 15.8964 27.3158C14.3248 25.7451 13.5391 23.8358 13.5391 21.5877C13.5391 19.3396 14.3244 17.4295 15.8951 15.8574C17.4658 14.2853 19.3768 13.4993 21.6282 13.4993C23.8795 13.4993 25.791 14.2848 27.3627 15.8559C28.9344 17.427 29.7202 19.337 29.7202 21.5858C29.7202 22.5258 29.5604 23.4351 29.2407 24.3138C28.921 25.1924 28.4706 25.9779 27.8894 26.6702L36.4621 35.2069L35.2553 36.4223ZM21.6433 27.9967C23.4301 27.9967 24.9438 27.3749 26.1843 26.1313C27.4248 24.8877 28.045 23.3725 28.045 21.5856C28.045 19.7987 27.4248 18.2834 26.1843 17.0398C24.9438 15.7962 23.4301 15.1744 21.6433 15.1744C19.8489 15.1744 18.3288 15.7962 17.083 17.0398C15.8371 18.2834 15.2142 19.7987 15.2142 21.5856C15.2142 23.3725 15.8371 24.8877 17.083 26.1313C18.3288 27.3749 19.8489 27.9967 21.6433 27.9967Z" fill="#F3F0EA"/>
</g>
</svg>
