<svg width="1328" height="720" viewBox="0 0 1328 720" fill="none" xmlns="http://www.w3.org/2000/svg">
<path fill-rule="evenodd" clip-rule="evenodd" d="M1040.59 1.41453e-05H0V720H1328V717.692C1326.01 708.032 1324.76 701.508 1323.8 696.552L1323.8 696.543L1323.8 696.538L1323.8 696.533C1321.82 686.237 1321.14 682.713 1317.85 671.863C1317.85 671.863 1305.71 618.989 1303.91 613.114C1298.44 595.191 1293.46 585.731 1293.46 585.731C1290.47 580.753 1289.74 573.129 1289.74 573.129C1291.47 549.885 1283 536.94 1283 536.94C1281.01 532.957 1280.51 514.536 1280.51 514.536C1282.51 493.128 1240.19 344.762 1240.19 344.762C1231.56 322.077 1212.6 282.97 1212.6 282.97C1205.83 275.559 1203.51 267.442 1203.51 267.442C1208.32 259.627 1166.68 211.978 1166.68 211.978C1162.96 207.198 1124.27 167.652 1124.27 167.652C1121.91 165.811 1121.09 156.725 1121.09 156.725C1122.67 152.665 1119.14 122.812 1119.14 122.812C1117.96 115.789 1108.83 99.7552 1108.83 99.7552C1105.52 93.4158 1107.88 89.1539 1107.88 89.1539C1122.37 73.2184 1111.29 47.6821 1111.29 47.6821C1115.65 35.1196 1103.25 37.6615 1103.25 37.6615L1041.8 3.00841L1040.59 1.41453e-05Z" fill="#F3F0EA"/>
</svg>
