<svg width="25" height="25" viewBox="0 0 25 25" fill="none" xmlns="http://www.w3.org/2000/svg">
<g clip-path="url(#clip0_2174_2797)">
<path d="M12.5 25C19.4036 25 25 19.4036 25 12.5C25 5.59644 19.4036 0 12.5 0C5.59644 0 0 5.59644 0 12.5C0 19.4036 5.59644 25 12.5 25Z" fill="#F0F0F0"/>
<path d="M2.58306 4.88965C1.60117 6.16714 0.860791 7.63955 0.429688 9.23911H6.93252L2.58306 4.88965Z" fill="#0052B4"/>
<path d="M24.5691 9.23906C24.138 7.63955 23.3976 6.16714 22.4158 4.88965L18.0664 9.23906H24.5691Z" fill="#0052B4"/>
<path d="M0.429688 15.7607C0.86084 17.3603 1.60122 18.8327 2.58306 20.1101L6.93237 15.7607H0.429688Z" fill="#0052B4"/>
<path d="M20.1092 2.58408C18.8317 1.6022 17.3593 0.861816 15.7598 0.430664V6.93345L20.1092 2.58408Z" fill="#0052B4"/>
<path d="M4.88867 22.4162C6.16616 23.3981 7.63857 24.1385 9.23809 24.5696V18.0669L4.88867 22.4162Z" fill="#0052B4"/>
<path d="M9.23804 0.430664C7.63853 0.861816 6.16611 1.6022 4.88867 2.58403L9.23804 6.9334V0.430664Z" fill="#0052B4"/>
<path d="M15.7598 24.5696C17.3593 24.1385 18.8317 23.3981 20.1091 22.4163L15.7598 18.0669V24.5696Z" fill="#0052B4"/>
<path d="M18.0664 15.7607L22.4158 20.1102C23.3976 18.8327 24.138 17.3603 24.5691 15.7607H18.0664Z" fill="#0052B4"/>
<path d="M24.8942 10.8696H14.1305H14.1305V0.105811C13.5967 0.0363281 13.0526 0 12.5 0C11.9473 0 11.4033 0.0363281 10.8696 0.105811V10.8695V10.8695H0.105811C0.0363281 11.4033 0 11.9474 0 12.5C0 13.0527 0.0363281 13.5967 0.105811 14.1304H10.8695H10.8695V24.8942C11.4033 24.9637 11.9473 25 12.5 25C13.0526 25 13.5967 24.9637 14.1304 24.8942V14.1305V14.1305H24.8942C24.9637 13.5967 25 13.0527 25 12.5C25 11.9474 24.9637 11.4033 24.8942 10.8696Z" fill="#D80027"/>
<path d="M15.7617 15.7608L21.3397 21.3387C21.5962 21.0823 21.8409 20.8142 22.0744 20.5362L17.2989 15.7607H15.7617V15.7608Z" fill="#D80027"/>
<path d="M9.24009 15.7607H9.23999L3.66211 21.3386C3.91855 21.5952 4.18667 21.8399 4.4646 22.0734L9.24009 17.2978V15.7607Z" fill="#D80027"/>
<path d="M9.23848 9.23921V9.23911L3.66055 3.66113C3.404 3.91758 3.15928 4.18569 2.92578 4.46362L7.70132 9.23916H9.23848V9.23921Z" fill="#D80027"/>
<path d="M15.7617 9.23901L21.3397 3.66099C21.0833 3.40444 20.8151 3.15972 20.5372 2.92627L15.7617 7.70181V9.23901Z" fill="#D80027"/>
</g>
<defs>
<clipPath id="clip0_2174_2797">
<rect width="25" height="25" fill="white"/>
</clipPath>
</defs>
</svg>
