<svg width="25" height="25" viewBox="0 0 25 25" fill="none" xmlns="http://www.w3.org/2000/svg">
<g clip-path="url(#clip0_2174_3142)">
<path d="M0 0H25V25H0V0Z" fill="#CC0000"/>
<path d="M13.0202 3.125L12.4054 5.11441H10.416L12.0255 6.34392L11.4107 8.33333L13.0202 7.1038L14.6297 8.33333L14.0149 6.34392L15.6243 5.11441H13.6349L13.0202 3.125ZM13.0202 4.16148L13.4136 5.43469H14.6869L13.6568 6.2216L14.0502 7.49482L13.0202 6.70792L11.9901 7.49482L12.3836 6.2216L11.3535 5.43469H12.6267L13.0202 4.16148Z" fill="#FFD700"/>
<path d="M8.32031 13.6081L9.61596 14.9156L10.8378 13.6995C12.6964 15.6973 14.6457 17.623 16.4899 19.6285C16.767 19.9081 17.2178 19.9097 17.4969 19.632C17.7759 19.3542 17.7774 18.9024 17.5003 18.6227C15.5209 16.751 13.5353 14.864 11.5552 12.9854L13.2013 11.3471L10.9113 11.0293L8.32031 13.6081Z" fill="#FFD700"/>
<path d="M12.4982 9.375C13.5641 9.97662 14.3733 10.84 14.8506 11.7425C15.3345 12.6573 15.5471 13.6124 15.5515 14.3759C15.5604 15.9416 14.285 17.2109 12.7228 17.2109C11.8892 17.2109 11.1398 16.8495 10.6221 16.2746L10.3358 16.5162C10.287 16.4975 10.2353 16.4879 10.183 16.4878C10.0574 16.4878 9.93808 16.5433 9.85686 16.6394C9.65261 16.6661 9.48166 16.8077 9.4169 17.0037C9.20157 17.4366 8.82377 17.776 8.3666 17.9315C8.36222 17.9329 8.35836 17.9349 8.35452 17.9368C8.14314 18.0145 7.93123 18.1547 7.75082 18.3363C7.39422 18.6968 7.21996 19.158 7.31807 19.4816C7.30839 19.5098 7.3034 19.5393 7.3033 19.5691C7.30331 19.7185 7.42419 19.8396 7.5733 19.8396C7.61062 19.8395 7.64751 19.8316 7.68165 19.8165C8.00404 19.8894 8.44194 19.7101 8.78438 19.365C8.97851 19.1687 9.12394 18.9365 9.19534 18.7089C9.35449 18.253 9.69655 17.8815 10.1311 17.6726C10.1414 17.6676 10.1498 17.6625 10.1573 17.6572C10.303 17.5874 10.4096 17.4556 10.4475 17.2983C11.1139 18.0862 12.1133 18.5893 13.2306 18.6156C15.2798 18.6639 16.8115 17.1522 16.8823 14.9784C16.918 13.8844 16.4956 12.4737 15.5332 11.3168C14.7977 10.4326 13.7193 9.69853 12.4982 9.375Z" fill="#FFD700"/>
</g>
<defs>
<clipPath id="clip0_2174_3142">
<rect width="25" height="25" rx="12.5" fill="white"/>
</clipPath>
</defs>
</svg>
