<svg width="39" height="28" viewBox="0 0 39 28" fill="none" xmlns="http://www.w3.org/2000/svg">
<g clip-path="url(#clip0_3301_1866)">
<path d="M12.5 26C19.4036 26 25 20.4036 25 13.5C25 6.59644 19.4036 1 12.5 1C5.59644 1 0 6.59644 0 13.5C0 20.4036 5.59644 26 12.5 26Z" fill="#F0F0F0"/>
<path d="M2.58403 5.88965C1.60215 7.16714 0.861768 8.63955 0.430664 10.2391H6.9335L2.58403 5.88965Z" fill="#0052B4"/>
<path d="M24.5691 10.2391C24.138 8.63955 23.3976 7.16714 22.4158 5.88965L18.0664 10.2391H24.5691Z" fill="#0052B4"/>
<path d="M0.430664 16.7607C0.861816 18.3603 1.6022 19.8327 2.58403 21.1101L6.93335 16.7607H0.430664Z" fill="#0052B4"/>
<path d="M20.1102 3.58408C18.8327 2.6022 17.3603 1.86182 15.7607 1.43066V7.93345L20.1102 3.58408Z" fill="#0052B4"/>
<path d="M4.88965 23.4157C6.16714 24.3976 7.63955 25.138 9.23906 25.5691V19.0664L4.88965 23.4157Z" fill="#0052B4"/>
<path d="M9.23901 1.43066C7.6395 1.86182 6.16709 2.6022 4.88965 3.58403L9.23901 7.9334V1.43066Z" fill="#0052B4"/>
<path d="M15.7607 25.5691C17.3603 25.138 18.8327 24.3976 20.1101 23.4158L15.7607 19.0664V25.5691Z" fill="#0052B4"/>
<path d="M18.0664 16.7607L22.4158 21.1102C23.3976 19.8327 24.138 18.3603 24.5691 16.7607H18.0664Z" fill="#0052B4"/>
<path d="M24.8942 11.8696H14.1305H14.1305V1.10581C13.5967 1.03633 13.0526 1 12.5 1C11.9473 1 11.4033 1.03633 10.8696 1.10581V11.8695V11.8695H0.105811C0.0363281 12.4033 0 12.9474 0 13.5C0 14.0527 0.0363281 14.5967 0.105811 15.1304H10.8695H10.8695V25.8942C11.4033 25.9637 11.9473 26 12.5 26C13.0526 26 13.5967 25.9637 14.1304 25.8942V15.1305V15.1305H24.8942C24.9637 14.5967 25 14.0527 25 13.5C25 12.9474 24.9637 12.4033 24.8942 11.8696V11.8696Z" fill="#D80027"/>
<path d="M15.7607 16.7608L21.3387 22.3387C21.5952 22.0823 21.8399 21.8142 22.0734 21.5362L17.298 16.7607H15.7607V16.7608Z" fill="#D80027"/>
<path d="M9.23911 16.7607H9.23901L3.66113 22.3386C3.91758 22.5952 4.18569 22.8399 4.46362 23.0734L9.23911 18.2978V16.7607Z" fill="#D80027"/>
<path d="M9.23945 10.2392V10.2391L3.66152 4.66113C3.40498 4.91758 3.16025 5.18569 2.92676 5.46362L7.70229 10.2392H9.23945V10.2392Z" fill="#D80027"/>
<path d="M15.7607 10.2395L21.3387 4.66147C21.0823 4.40493 20.8142 4.16021 20.5362 3.92676L15.7607 8.70229V10.2395Z" fill="#D80027"/>
</g>
<g clip-path="url(#clip1_3301_1866)">
<path d="M25 26C31.6274 26 37 20.6274 37 14C37 7.37258 31.6274 2 25 2C18.3726 2 13 7.37258 13 14C13 20.6274 18.3726 26 25 26Z" fill="#F0F0F0"/>
<path d="M24.4775 13.9996H36.9993C36.9993 12.9165 36.8549 11.8672 36.5859 10.8691H24.4775V13.9996Z" fill="#D80027"/>
<path d="M24.4775 7.73885H35.238C34.5034 6.54016 33.5642 5.48065 32.4691 4.6084H24.4775V7.73885Z" fill="#D80027"/>
<path d="M25.0001 25.9993C27.8243 25.9993 30.4201 25.0232 32.4699 23.3906H17.5303C19.5801 25.0232 22.1759 25.9993 25.0001 25.9993Z" fill="#D80027"/>
<path d="M14.761 20.2603H35.2384C35.8281 19.298 36.2855 18.2462 36.5863 17.1299H13.4131C13.7139 18.2462 14.1712 19.298 14.761 20.2603V20.2603Z" fill="#D80027"/>
<path d="M18.5586 3.87397H19.6522L18.635 4.61295L19.0235 5.80869L18.0064 5.0697L16.9892 5.80869L17.3249 4.7757C16.4293 5.52172 15.6443 6.39575 14.9974 7.36963H15.3478L14.7003 7.84002C14.5995 8.0083 14.5027 8.17925 14.41 8.35273L14.7192 9.30434L14.1423 8.88523C13.999 9.18903 13.8678 9.49967 13.7499 9.81678L14.0905 10.8653H15.3478L14.3306 11.6043L14.7192 12.8L13.702 12.061L13.0928 12.5037C13.0318 12.9939 13 13.4932 13 14H25C25 7.37262 25 6.59131 25 2C22.6294 2 20.4196 2.68766 18.5586 3.87397V3.87397ZM19.0235 12.8L18.0064 12.061L16.9892 12.8L17.3778 11.6043L16.3606 10.8653H17.6179L18.0064 9.66955L18.3949 10.8653H19.6522L18.635 11.6043L19.0235 12.8ZM18.635 8.10861L19.0235 9.30434L18.0064 8.56536L16.9892 9.30434L17.3778 8.10861L16.3606 7.36963H17.6179L18.0064 6.17389L18.3949 7.36963H19.6522L18.635 8.10861ZM23.3279 12.8L22.3107 12.061L21.2936 12.8L21.6821 11.6043L20.665 10.8653H21.9222L22.3107 9.66955L22.6992 10.8653H23.9565L22.9393 11.6043L23.3279 12.8ZM22.9393 8.10861L23.3279 9.30434L22.3107 8.56536L21.2936 9.30434L21.6821 8.10861L20.665 7.36963H21.9222L22.3107 6.17389L22.6992 7.36963H23.9565L22.9393 8.10861ZM22.9393 4.61295L23.3279 5.80869L22.3107 5.0697L21.2936 5.80869L21.6821 4.61295L20.665 3.87397H21.9222L22.3107 2.67823L22.6992 3.87397H23.9565L22.9393 4.61295Z" fill="#0052B4"/>
</g>
<rect x="12" y="1" width="26" height="26" rx="13" stroke="#F3F0EA" stroke-width="2"/>
<defs>
<clipPath id="clip0_3301_1866">
<rect width="25" height="25" fill="white" transform="translate(0 1)"/>
</clipPath>
<clipPath id="clip1_3301_1866">
<rect x="13" y="2" width="24" height="24" rx="12" fill="white"/>
</clipPath>
</defs>
</svg>
