<svg width="25" height="25" viewBox="0 0 25 25" fill="none" xmlns="http://www.w3.org/2000/svg">
<g clip-path="url(#clip0_2174_3959)">
<path d="M12.5 25C19.4036 25 25 19.4036 25 12.5C25 5.59644 19.4036 0 12.5 0C5.59644 0 0 5.59644 0 12.5C0 19.4036 5.59644 25 12.5 25Z" fill="#F0F0F0"/>
<path d="M12.4999 0C7.54414 0 3.26211 2.88403 1.24023 7.06523H23.7595C21.7377 2.88403 17.4556 0 12.4999 0Z" fill="#338AF3"/>
<path d="M12.4999 24.9998C17.4556 24.9998 21.7377 22.1158 23.7596 17.9346H1.24023C3.26211 22.1158 7.54414 24.9998 12.4999 24.9998Z" fill="#338AF3"/>
<path d="M16.2358 12.5003L14.7092 13.2185L15.5222 14.6969L13.8645 14.3798L13.6544 16.0544L12.4998 14.8228L11.3451 16.0544L11.1351 14.3798L9.47734 14.6969L10.2902 13.2184L8.76367 12.5003L10.2903 11.7822L9.47734 10.3038L11.135 10.6209L11.3451 8.94629L12.4998 10.1779L13.6544 8.94629L13.8645 10.6209L15.5222 10.3038L14.7093 11.7823L16.2358 12.5003Z" fill="#FFDA44"/>
</g>
<defs>
<clipPath id="clip0_2174_3959">
<rect width="25" height="25" fill="white"/>
</clipPath>
</defs>
</svg>
